HIERARCHY
ROOT Hips
{
	OFFSET 0.00 0.00 0.00
	CHANNELS 6 Xposition Yposition Zposition Xrotation Yrotation Zrotation
	JOINT Spine
	{
		OFFSET 0.00000 1.74037 2.61055
		CHANNELS 3 Xrotation Yrotation Zrotation
		JOINT Spine1
		{
			OFFSET 0.00000 0.60442 3.42785
			CHANNELS 3 Xrotation Yrotation Zrotation
			JOINT Spine2
			{
				OFFSET 0.00000 0.30337 3.46749
				CHANNELS 3 Xrotation Yrotation Zrotation
				JOINT Spine3
				{
					OFFSET 0.00000 0.00000 3.48073
					CHANNELS 3 Xrotation Yrotation Zrotation
					JOINT Neck
					{
						OFFSET 0.00000 -1.30527 9.13692
						CHANNELS 3 Xrotation Yrotation Zrotation
						JOINT Head
						{
							OFFSET 0.00000 -0.83108 4.71330
							CHANNELS 3 Xrotation Yrotation Zrotation
							End Site
							{
								OFFSET 0.00000 0.00000 5.63444
							}
						}
					}
					JOINT RightShoulder
					{
						OFFSET -1.19033 -1.98388 6.42776
						CHANNELS 3 Xrotation Yrotation Zrotation
						JOINT RightArm
						{
							OFFSET -5.91195 -0.00000 0.00000
							CHANNELS 3 Xrotation Yrotation Zrotation
							JOINT RightForeArm
							{
								OFFSET -11.47200 -0.00000 0.00000
								CHANNELS 3 Xrotation Yrotation Zrotation
								JOINT RightHand
								{
									OFFSET -9.14371 -0.00000 0.00000
									CHANNELS 3 Xrotation Yrotation Zrotation
									JOINT RightHandEnd
									{
										OFFSET -2.71173 -0.00000 0.00000
										CHANNELS 3 Xrotation Yrotation Zrotation
										End Site
										{
											OFFSET -2.71173 -0.00000 0.00000
										}
									}
									JOINT RightHandThumb1
									{
										OFFSET -1.08469 -1.80782 -0.72313
										CHANNELS 3 Xrotation Yrotation Zrotation
										End Site
										{
											OFFSET -2.61933 -0.70185 0.00000
										}
									}
								}
							}
						}
					}
					JOINT LeftShoulder
					{
						OFFSET 1.19033 -1.98388 6.42776
						CHANNELS 3 Xrotation Yrotation Zrotation
						JOINT LeftArm
						{
							OFFSET 5.91195 0.00000 0.00000
							CHANNELS 3 Xrotation Yrotation Zrotation
							JOINT LeftForeArm
							{
								OFFSET 11.47200 0.00000 0.00000
								CHANNELS 3 Xrotation Yrotation Zrotation
								JOINT LeftHand
								{
									OFFSET 9.14371 0.00000 0.00000
									CHANNELS 3 Xrotation Yrotation Zrotation
									JOINT LeftHandEnd
									{
										OFFSET 2.71173 0.00000 0.00000
										CHANNELS 3 Xrotation Yrotation Zrotation
										End Site
										{
											OFFSET 2.71173 0.00000 0.00000
										}
									}
									JOINT LeftHandThumb1
									{
										OFFSET 1.08469 -1.80782 -0.72313
										CHANNELS 3 Xrotation Yrotation Zrotation
										End Site
										{
											OFFSET 2.61933 -0.70185 0.00000
										}
									}
								}
							}
						}
					}
				}
			}
		}
	}
	JOINT RightUpLeg
	{
		OFFSET -3.53130 0.00000 -1.03162
		CHANNELS 3 Xrotation Yrotation Zrotation
		JOINT RightLeg
		{
			OFFSET 0.00000 0.00000 -16.51463
			CHANNELS 3 Xrotation Yrotation Zrotation
			JOINT RightFoot
			{
				OFFSET 0.00000 0.00000 -16.87143
				CHANNELS 3 Xrotation Yrotation Zrotation
				JOINT RightToeBase
				{
					OFFSET 0.00000 -7.15696 -2.60492
					CHANNELS 3 Xrotation Yrotation Zrotation
					End Site
					{
						OFFSET -0.00000 -2.85678 0.00000
					}
				}
			}
		}
	}
	JOINT LeftUpLeg
	{
		OFFSET 3.53130 0.00000 -1.03162
		CHANNELS 3 Xrotation Yrotation Zrotation
		JOINT LeftLeg
		{
			OFFSET 0.00000 0.00000 -16.51463
			CHANNELS 3 Xrotation Yrotation Zrotation
			JOINT LeftFoot
			{
				OFFSET 0.00000 0.00000 -16.87143
				CHANNELS 3 Xrotation Yrotation Zrotation
				JOINT LeftToeBase
				{
					OFFSET 0.00000 -7.15696 -2.60492
					CHANNELS 3 Xrotation Yrotation Zrotation
					End Site
					{
						OFFSET -0.00000 -2.85678 0.00000
					}
				}
			}
		}
	}
}
MOTION
Frames: 10
Frame Time: 0.008333
 5.1805 36.3073 5.4734 -92.8800 7.2202 175.3133 1.7092 3.9046 -0.2089 0.6340 0.0603 0.0245 1.6359 1.0339 0.8979 -0.3082 0.4489 -0.0132 -1.1881 3.7374 2.5708 1.7293 2.5740 2.7459 1.3534 9.1822 1.5517 18.9938 -8.5203 -4.0900 -0.0000 0.0000 26.2283 -0.4756 4.2212 -1.0507 0.0000 -0.0000 -0.0000 0.0000 -0.0000 -0.0000 4.3119 -5.3706 2.1077 61.9403 35.8684 -40.1901 -0.0000 -0.0000 -61.4052 -18.5428 18.5180 7.8446 0.0000 -0.0000 0.0000 -0.0000 0.0000 -0.0000 -5.3832 19.2515 -19.9589 10.8596 0.0000 -0.0000 -7.4879 -11.5873 9.7471 0.4903 0.0000 0.0000 -0.6944 0.1828 7.3023 1.3769 0.0000 0.0000 -6.0446 9.8324 9.2360 -1.2352 -0.0000 0.0000
 5.2888 36.3210 5.4939 -93.0779 7.1133 175.7221 1.6799 3.7215 -0.2150 0.6199 0.0683 0.0205 1.5919 1.0127 0.7463 -0.3329 0.4265 -0.0331 -1.2803 3.6633 2.4768 1.6372 2.6315 2.7470 1.2757 9.2874 1.4204 18.7161 -8.2082 -4.3867 -0.0000 -0.0000 25.7036 -0.5207 4.0625 -1.2019 0.0000 -0.0000 0.0000 0.0000 -0.0000 0.0000 4.3724 -5.6581 2.0171 61.6902 35.5752 -39.4349 -0.0000 0.0000 -62.2888 -18.8195 18.5297 7.8868 0.0000 -0.0000 -0.0000 -0.0000 0.0000 -0.0000 -5.3598 18.9066 -19.9430 10.7206 -0.0000 0.0000 -7.6263 -11.4222 9.2869 0.4900 -0.0000 0.0000 -1.1080 -0.1960 7.2697 1.7508 -0.0000 -0.0000 -6.4742 10.8152 9.0079 -1.2133 -0.0000 0.0000
 5.3919 36.3361 5.5113 -93.2368 7.0347 176.1011 1.6133 3.5668 -0.2231 0.5830 0.0924 0.0232 1.6409 1.0077 0.6335 -0.3204 0.3925 -0.0439 -1.4108 3.5513 2.3625 1.5877 2.6760 2.7141 1.1589 9.4298 1.2873 18.4233 -7.9856 -4.6859 0.0000 0.0000 25.2234 -1.1667 4.0365 -1.1473 -0.0000 0.0000 -0.0000 0.0000 0.0000 0.0000 4.3559 -6.0391 1.8545 61.5175 35.3401 -38.7409 -0.0000 0.0000 -63.1492 -19.0694 18.5801 7.8988 -0.0000 0.0000 -0.0000 -0.0000 0.0000 0.0000 -5.3022 18.5946 -19.8657 10.5586 0.0000 0.0000 -7.7431 -11.2594 8.7857 0.4718 -0.0000 0.0000 -1.4815 -0.5415 7.3645 2.1282 0.0000 -0.0000 -6.8927 11.8702 8.7564 -1.2244 -0.0000 0.0000
 5.4916 36.3510 5.5240 -93.3618 6.9705 176.4609 1.6002 3.4278 -0.2389 0.5699 0.1162 0.0273 1.6197 1.0286 0.5554 -0.3381 0.3666 -0.0480 -1.4893 3.3979 2.2243 1.5609 2.6968 2.6682 1.0922 9.5435 1.1318 18.1943 -7.7959 -4.9652 -0.0000 -0.0000 24.7621 -0.4012 3.9749 -1.3909 -0.0000 0.0000 -0.0000 -0.0000 -0.0000 -0.0000 4.4041 -6.3570 1.7492 61.2371 34.9973 -37.9327 0.0000 0.0000 -64.0980 -19.2608 18.6228 7.9275 0.0000 -0.0000 0.0000 -0.0000 0.0000 0.0000 -5.2084 18.2969 -19.7042 10.3864 0.0000 0.0000 -7.8675 -11.1163 8.2117 0.4751 0.0000 0.0000 -1.8701 -0.8839 7.8716 2.6204 -0.0000 0.0000 -7.2993 12.8892 8.2303 -1.4822 -0.0000 -0.0000
 5.5840 36.3687 5.5295 -93.4188 6.9457 176.7783 1.6099 3.3050 -0.2456 0.5668 0.1509 0.0323 1.6196 1.0833 0.5018 -0.3574 0.3410 -0.0510 -1.5460 3.2302 2.0851 1.5392 2.6989 2.6076 1.0461 9.6587 0.9680 17.9262 -7.6410 -5.2185 -0.0000 -0.0000 24.3063 -0.5681 3.9501 -1.3532 0.0000 -0.0000 0.0000 0.0000 -0.0000 0.0000 4.4351 -6.7189 1.6412 60.9786 34.6522 -37.1534 -0.0000 0.0000 -64.9977 -19.5342 18.7782 7.9479 -0.0000 -0.0000 -0.0000 -0.0000 -0.0000 0.0000 -5.0407 18.0556 -19.5347 10.1861 0.0000 -0.0000 -7.9651 -10.9671 7.6731 0.4794 -0.0000 0.0000 -2.0537 -1.1485 7.9142 2.8575 -0.0000 0.0000 -7.8622 13.9759 8.4051 -0.9637 -0.0000 0.0000
 5.6712 36.3849 5.5338 -93.5084 6.9229 177.0778 1.6026 3.1934 -0.2540 0.5338 0.1891 0.0384 1.6039 1.1256 0.4669 -0.3655 0.3156 -0.0523 -1.5843 3.0679 1.9554 1.5205 2.6856 2.5279 1.0101 9.7867 0.8243 17.6801 -7.5180 -5.4812 -0.0000 0.0000 23.8874 -0.8360 3.8277 -1.3289 -0.0000 -0.0000 -0.0000 0.0000 -0.0000 -0.0000 4.4967 -7.0481 1.5888 60.4623 34.3310 -36.2395 -0.0000 0.0000 -65.8738 -20.4612 19.8534 8.2601 0.0000 -0.0000 -0.0000 -0.0000 0.0000 0.0000 -4.9191 17.8236 -19.3691 9.9865 0.0000 -0.0000 -8.0505 -10.8452 7.1638 0.4453 -0.0000 0.0000 -2.2516 -1.3785 7.9091 3.0346 0.0000 0.0000 -8.1292 13.8072 8.7480 -1.2954 -0.0000 -0.0000
 5.7639 36.4060 5.5485 -93.5695 6.9263 177.2427 1.6340 3.1842 -0.3007 0.5685 0.2227 0.0420 1.5313 1.1207 0.5476 -0.3981 0.2810 -0.0240 -1.6153 2.9096 1.8443 1.4921 2.6549 2.4214 0.9429 9.8988 0.7118 17.4761 -7.4100 -5.7232 -0.0000 0.0000 23.4711 -0.7342 3.7178 -1.3071 -0.0000 0.0000 -0.0000 0.0000 -0.0000 0.0000 4.5523 -7.3275 1.5649 60.1021 33.8524 -35.3804 -0.0000 0.0000 -66.7574 -20.7026 19.9484 8.2971 -0.0000 0.0000 0.0000 0.0000 0.0000 -0.0000 -4.8595 17.6097 -19.1166 9.8182 -0.0000 0.0000 -8.0969 -10.6673 6.7265 0.4208 0.0000 -0.0000 -2.4187 -1.6143 8.0006 3.1968 -0.0000 -0.0000 -8.5098 13.5186 9.2792 -1.1604 -0.0000 0.0000
 5.8412 36.4276 5.5549 -93.6302 7.0055 177.4301 1.6340 3.2020 -0.3010 0.5636 0.2441 0.0487 1.4955 1.1715 0.5788 -0.4109 0.2631 -0.0193 -1.6247 2.7650 1.7520 1.4634 2.6010 2.3171 0.8924 10.0074 0.6014 17.3128 -7.3362 -5.9492 -0.0000 0.0000 23.0868 -0.4362 3.6184 -1.4884 -0.0000 0.0000 -0.0000 0.0000 -0.0000 -0.0000 4.5992 -7.5869 1.5202 59.8703 33.2917 -34.5183 -0.0000 0.0000 -67.6364 -20.4173 19.3519 8.0615 -0.0000 -0.0000 0.0000 0.0000 0.0000 -0.0000 -4.7607 17.5179 -19.1030 9.6150 0.0000 0.0000 -8.0926 -10.5336 6.5056 0.3978 -0.0000 0.0000 -2.5522 -1.7513 8.0259 3.3191 -0.0000 -0.0000 -8.8301 12.5485 9.9378 -1.0895 -0.0000 0.0000
 5.9165 36.4459 5.5591 -93.7144 7.0353 177.6012 1.6185 3.1971 -0.2801 0.5367 0.2568 0.0517 1.4469 1.2014 0.5876 -0.4114 0.2489 -0.0229 -1.6193 2.6306 1.6730 1.4554 2.5442 2.2035 0.8219 10.1346 0.5274 17.2223 -7.2939 -6.1388 -0.0000 0.0000 22.7109 -0.3576 3.4731 -1.6249 0.0000 -0.0000 0.0000 0.0000 0.0000 -0.0000 4.6459 -7.8054 1.5431 59.4165 32.7704 -33.5158 -0.0000 0.0000 -68.4585 -20.7019 19.5454 8.0613 0.0000 -0.0000 0.0000 0.0000 -0.0000 -0.0000 -4.6833 17.3833 -19.1906 9.4108 0.0000 0.0000 -8.0743 -10.4127 6.3952 0.4127 0.0000 0.0000 -2.6840 -1.9576 8.0225 3.4038 -0.0000 0.0000 -9.0632 11.2982 10.7314 -1.2421 -0.0000 0.0000
 5.9936 36.4629 5.5762 -93.8239 7.0437 177.7752 1.6288 3.2338 -0.2628 0.5565 0.2667 0.0513 1.3149 1.1765 0.5771 -0.4343 0.2238 -0.0284 -1.5964 2.5396 1.6335 1.4484 2.4706 2.0907 0.7377 10.2747 0.4936 17.1337 -7.2715 -6.3198 0.0000 0.0000 22.3713 -0.0987 3.2899 -1.7738 -0.0000 -0.0000 0.0000 0.0000 -0.0000 -0.0000 4.7198 -7.9782 1.6208 58.8545 32.2173 -32.4622 0.0000 0.0000 -69.2008 -21.1257 19.8790 8.0822 0.0000 0.0000 -0.0000 0.0000 0.0000 -0.0000 -4.6561 17.2290 -19.3462 9.2175 -0.0000 0.0000 -8.0274 -10.2951 6.3633 0.3830 -0.0000 0.0000 -2.8941 -2.2361 8.0763 3.5542 -0.0000 -0.0000 -9.4724 10.6480 11.6107 -1.0611 -0.0000 0.0000
